<svg version="1.1" viewBox="0.0 0.0 1133.8582677165355 1133.8582677165355" fill="none" stroke="none" stroke-linecap="square" stroke-miterlimit="10" xmlns:xlink="http://www.w3.org/1999/xlink" xmlns="http://www.w3.org/2000/svg"><clipPath id="p.0"><path d="m0 0l1133.8583 0l0 1133.8583l-1133.8583 0l0 -1133.8583z" clip-rule="nonzero"/></clipPath><g clip-path="url(#p.0)"><path fill="#000000" fill-opacity="0.0" d="m0 0l1133.8583 0l0 1133.8583l-1133.8583 0z" fill-rule="evenodd"/><path fill="#351c75" d="m708.6628 141.73232l0 0c78.27655 78.27658 78.27655 205.18797 0 283.46454c-78.27661 78.27658 -205.18799 78.27658 -283.46457 0c-78.27658 -78.27658 -78.27658 -205.18797 0 -283.46454l141.73227 141.73228z" fill-rule="evenodd"/><path stroke="#000000" stroke-width="16.0" stroke-linejoin="round" stroke-linecap="butt" d="m708.6628 141.73232l0 0c78.27655 78.27658 78.27655 205.18797 0 283.46454c-78.27661 78.27658 -205.18799 78.27658 -283.46457 0c-78.27658 -78.27658 -78.27658 -205.18797 0 -283.46454l141.73227 141.73228z" fill-rule="evenodd"/><path fill="#990000" d="m141.73232 425.12863l0 0c78.27658 -78.27658 205.188 -78.27658 283.4646 0c78.27658 78.27658 78.27658 205.18802 0 283.46457c-78.27658 78.27661 -205.188 78.27661 -283.4646 0l141.73228 -141.7323z" fill-rule="evenodd"/><path stroke="#000000" stroke-width="16.0" stroke-linejoin="round" stroke-linecap="butt" d="m141.73232 425.12863l0 0c78.27658 -78.27658 205.188 -78.27658 283.4646 0c78.27658 78.27658 78.27658 205.18802 0 283.46457c-78.27658 78.27661 -205.188 78.27661 -283.4646 0l141.73228 -141.7323z" fill-rule="evenodd"/><path fill="#38761d" d="m992.126 708.6296l0 0c-78.27661 78.27655 -205.18799 78.27655 -283.4646 0c-78.27655 -78.27661 -78.27655 -205.18802 0 -283.4646c78.27661 -78.27658 205.18799 -78.27658 283.4646 0l-141.7323 141.7323z" fill-rule="evenodd"/><path stroke="#000000" stroke-width="16.0" stroke-linejoin="round" stroke-linecap="butt" d="m992.126 708.6296l0 0c-78.27661 78.27655 -205.18799 78.27655 -283.4646 0c-78.27655 -78.27661 -78.27655 -205.18802 0 -283.4646c78.27661 -78.27658 205.18799 -78.27658 283.4646 0l-141.7323 141.7323z" fill-rule="evenodd"/><path fill="#bf9000" d="m425.1973 992.126l0 0c-78.27658 -78.27661 -78.27658 -205.18799 0 -283.4646c78.27658 -78.27655 205.18796 -78.27655 283.46457 0c78.27655 78.27661 78.27655 205.18799 0 283.4646l-141.7323 -141.7323z" fill-rule="evenodd"/><path stroke="#000000" stroke-width="16.0" stroke-linejoin="round" stroke-linecap="butt" d="m425.1973 992.126l0 0c-78.27658 -78.27661 -78.27658 -205.18799 0 -283.4646c78.27658 -78.27655 205.18796 -78.27655 283.46457 0c78.27655 78.27661 78.27655 205.18799 0 283.4646l-141.7323 -141.7323z" fill-rule="evenodd"/></g></svg>