<svg version="1.1" viewBox="0.0 0.0 1133.8582677165355 1398.4251968503936" fill="none" stroke="none" stroke-linecap="square" stroke-miterlimit="10" xmlns:xlink="http://www.w3.org/1999/xlink" xmlns="http://www.w3.org/2000/svg"><clipPath id="p.0"><path d="m0 0l1133.8583 0l0 1398.4252l-1133.8583 0l0 -1398.4252z" clip-rule="nonzero"/></clipPath><g clip-path="url(#p.0)"><path fill="#000000" fill-opacity="0.0" d="m0 0l1133.8583 0l0 1398.4252l-1133.8583 0z" fill-rule="evenodd"/><path fill="#351c75" d="m708.6628 141.73286l0 0c78.27655 78.27658 78.27655 205.188 0 283.46454c-78.27661 78.27658 -205.18799 78.27658 -283.46457 0c-78.27658 -78.27655 -78.27658 -205.18797 0 -283.46454l141.73227 141.73228z" fill-rule="evenodd"/><path stroke="#000000" stroke-width="16.0" stroke-linejoin="round" stroke-linecap="butt" d="m708.6628 141.73286l0 0c78.27655 78.27658 78.27655 205.188 0 283.46454c-78.27661 78.27658 -205.18799 78.27658 -283.46457 0c-78.27658 -78.27655 -78.27658 -205.18797 0 -283.46454l141.73227 141.73228z" fill-rule="evenodd"/><path fill="#990000" d="m141.73232 425.12796l0 0c78.27658 -78.27658 205.188 -78.27658 283.4646 0c78.27658 78.27658 78.27658 205.18802 0 283.46457c-78.27658 78.27661 -205.188 78.27661 -283.4646 0l141.73228 -141.7323z" fill-rule="evenodd"/><path stroke="#000000" stroke-width="16.0" stroke-linejoin="round" stroke-linecap="butt" d="m141.73232 425.12796l0 0c78.27658 -78.27658 205.188 -78.27658 283.4646 0c78.27658 78.27658 78.27658 205.18802 0 283.46457c-78.27658 78.27661 -205.188 78.27661 -283.4646 0l141.73228 -141.7323z" fill-rule="evenodd"/><path fill="#38761d" d="m992.126 708.6301l0 0c-78.27661 78.27655 -205.18799 78.27655 -283.4646 0c-78.27655 -78.27661 -78.27655 -205.18802 0 -283.4646c78.27661 -78.27658 205.18799 -78.27658 283.4646 0l-141.7323 141.7323z" fill-rule="evenodd"/><path stroke="#000000" stroke-width="16.0" stroke-linejoin="round" stroke-linecap="butt" d="m992.126 708.6301l0 0c-78.27661 78.27655 -205.18799 78.27655 -283.4646 0c-78.27655 -78.27661 -78.27655 -205.18802 0 -283.4646c78.27661 -78.27658 205.18799 -78.27658 283.4646 0l-141.7323 141.7323z" fill-rule="evenodd"/><path fill="#bf9000" d="m425.1973 992.1253l0 0c-78.27658 -78.27661 -78.27658 -205.18799 0 -283.4646c78.27658 -78.27655 205.18796 -78.27655 283.46457 0c78.27655 78.27661 78.27655 205.18799 0 283.4646l-141.7323 -141.7323z" fill-rule="evenodd"/><path stroke="#000000" stroke-width="16.0" stroke-linejoin="round" stroke-linecap="butt" d="m425.1973 992.1253l0 0c-78.27658 -78.27661 -78.27658 -205.18799 0 -283.4646c78.27658 -78.27655 205.18796 -78.27655 283.46457 0c78.27655 78.27661 78.27655 205.18799 0 283.4646l-141.7323 -141.7323z" fill-rule="evenodd"/><path fill="#000000" fill-opacity="0.0" d="m-321.39633 978.47034l380.59842 0l0 42.015747l-380.59842 0z" fill-rule="evenodd"/><path fill="#000000" fill-opacity="0.0" d="m0.002624672 1133.8583l1133.8582 0l0 264.5669l-1133.8582 0z" fill-rule="evenodd"/><path fill="#351c75" d="m116.6254 1338.1417l0 -131.0l-44.390625 0l0 -15.59375l107.390625 0l0 15.59375l-44.390625 0l0 131.0l-18.609375 0zm116.41254 2.59375q-14.609375 0 -26.40625 -6.796875q-11.796875 -6.796875 -18.703125 -19.5q-6.890625 -12.703125 -6.890625 -30.5q0 -13.390625 4.0 -23.890625q4.0 -10.5 10.890625 -18.0q6.90625 -7.5 15.703125 -11.40625q8.796875 -3.90625 18.0 -3.90625q14.0 0 23.59375 6.203125q9.609375 6.203125 14.703125 17.703125q5.109375 11.5 5.109375 27.09375q0 3.0 -0.203125 5.609375q-0.203125 2.59375 -0.609375 4.796875l-73.1875 0q0.59375 11.59375 5.296875 20.09375q4.703125 8.5 12.5 13.203125q7.796875 4.703125 18.203125 4.703125q8.0 0 14.5 -2.296875q6.5 -2.296875 12.6875 -6.296875l6.40625 12.1875q-7.0 4.609375 -15.796875 7.8125q-8.796875 3.1875 -19.796875 3.1875zm-34.203125 -65.59375l58.203125 0q0 -16.40625 -7.109375 -25.09375q-7.09375 -8.703125 -19.890625 -8.703125q-7.609375 0 -14.3125 4.0q-6.6875 4.0 -11.1875 11.40625q-4.5 7.390625 -5.703125 18.390625zm122.203156 65.59375q-9.0 0 -16.203125 -3.59375q-7.203125 -3.59375 -11.3125 -10.5q-4.09375 -6.90625 -4.09375 -16.703125q0 -17.796875 15.890625 -27.296875q15.90625 -9.5 50.71875 -13.296875q0 -7.0 -1.90625 -13.296875q-1.90625 -6.3125 -6.703125 -10.203125q-4.796875 -3.90625 -13.796875 -3.90625q-9.40625 0 -17.703125 3.703125q-8.296875 3.703125 -14.890625 7.90625l-7.0 -12.609375q5.0 -3.203125 11.59375 -6.5q6.59375 -3.296875 14.390625 -5.5q7.8125 -2.203125 16.609375 -2.203125q13.203125 0 21.5 5.609375q8.296875 5.59375 12.1875 15.5q3.90625 9.890625 3.90625 23.5l0 66.796875l-15.0 0l-1.59375 -13.0l-0.59375 0q-7.609375 6.40625 -16.71875 11.0q-9.09375 4.59375 -19.28125 4.59375zm5.1875 -14.796875q7.8125 0 14.90625 -3.59375q7.09375 -3.609375 14.90625 -10.609375l0 -30.1875q-18.203125 2.0 -29.015625 5.703125q-10.796875 3.6875 -15.390625 9.0q-4.59375 5.296875 -4.59375 12.484375q0 9.40625 5.59375 13.3125q5.59375 3.890625 13.59375 3.890625z" fill-rule="nonzero"/><path fill="#bf9000" d="m465.63797 1340.7355q-13.609375 0 -25.3125 -5.09375q-11.6875 -5.09375 -20.296875 -14.890625q-8.59375 -9.8125 -13.40625 -23.90625q-4.796875 -14.109375 -4.796875 -31.90625q0 -17.796875 4.90625 -31.890625q4.90625 -14.109375 13.703125 -23.90625q8.796875 -9.796875 20.59375 -15.0q11.796875 -5.203125 25.796875 -5.203125q13.40625 0 23.609375 5.5q10.203125 5.5 16.59375 12.5l-10.0 12.0q-5.796875 -6.203125 -13.203125 -10.0q-7.390625 -3.796875 -16.796875 -3.796875q-13.796875 0 -24.203125 7.203125q-10.390625 7.203125 -16.203125 20.5q-5.796875 13.296875 -5.796875 31.5q0 18.59375 5.59375 32.09375q5.609375 13.5 15.8125 20.8125q10.203125 7.296875 24.203125 7.296875q10.390625 0 18.6875 -4.40625q8.3125 -4.40625 15.3125 -12.203125l10.203125 11.796875q-8.609375 10.0 -19.609375 15.5q-11.0 5.5 -25.390625 5.5zm70.600006 -2.59375l0 -159.20312l18.390625 0l0 43.609375l-0.796875 22.390625q7.59375 -7.59375 16.1875 -12.890625q8.609375 -5.3125 19.8125 -5.3125q17.203125 0 25.203125 10.90625q8.0 10.90625 8.0 31.703125l0 68.796875l-18.203125 0l0 -66.40625q0 -15.390625 -4.90625 -22.1875q-4.890625 -6.8125 -15.6875 -6.8125q-8.40625 0 -15.015625 4.203125q-6.59375 4.203125 -14.59375 12.40625l0 78.796875l-18.390625 0zm121.400024 0l0 -108.59375l18.390625 0l0 108.59375l-18.390625 0zm9.1875 -131.0q-5.390625 0 -8.703125 -3.296875q-3.296875 -3.296875 -3.296875 -8.90625q0 -5.390625 3.296875 -8.59375q3.3125 -3.203125 8.703125 -3.203125q5.40625 0 8.796875 3.203125q3.40625 3.203125 3.40625 8.59375q0 5.609375 -3.40625 8.90625q-3.390625 3.296875 -8.796875 3.296875zm45.8125 131.0l0 -108.59375l15.0 0l1.796875 15.796875l0.390625 0q7.203125 -7.796875 15.703125 -13.203125q8.5 -5.40625 18.109375 -5.40625q12.59375 0 19.59375 5.609375q7.0 5.59375 10.40625 15.203125q8.59375 -9.203125 17.296875 -15.0q8.703125 -5.8125 18.703125 -5.8125q16.59375 0 24.6875 10.90625q8.109375 10.90625 8.109375 31.703125l0 68.796875l-18.203125 0l0 -66.40625q0 -15.390625 -4.90625 -22.1875q-4.890625 -6.8125 -15.296875 -6.8125q-6.203125 0 -12.90625 4.109375q-6.6875 4.09375 -14.484375 12.5l0 78.796875l-18.203125 0l0 -66.40625q0 -15.390625 -4.90625 -22.1875q-4.890625 -6.8125 -15.296875 -6.8125q-6.203125 0 -13.0 4.109375q-6.796875 4.09375 -14.203125 12.5l0 78.796875l-18.390625 0zm229.20007 2.59375q-14.609375 0 -26.40625 -6.796875q-11.796875 -6.796875 -18.703125 -19.5q-6.890625 -12.703125 -6.890625 -30.5q0 -13.390625 4.0 -23.890625q4.0 -10.5 10.890625 -18.0q6.90625 -7.5 15.703125 -11.40625q8.796875 -3.90625 18.0 -3.90625q14.0 0 23.59375 6.203125q9.609375 6.203125 14.703125 17.703125q5.109375 11.5 5.109375 27.09375q0 3.0 -0.203125 5.609375q-0.203125 2.59375 -0.609375 4.796875l-73.1875 0q0.59375 11.59375 5.296875 20.09375q4.703125 8.5 12.5 13.203125q7.796875 4.703125 18.203125 4.703125q8.0 0 14.5 -2.296875q6.5 -2.296875 12.6875 -6.296875l6.40625 12.1875q-7.0 4.609375 -15.796875 7.8125q-8.796875 3.1875 -19.796875 3.1875zm-34.203125 -65.59375l58.203125 0q0 -16.40625 -7.109375 -25.09375q-7.09375 -8.703125 -19.890625 -8.703125q-7.609375 0 -14.3125 4.0q-6.6875 4.0 -11.1875 11.40625q-4.5 7.390625 -5.703125 18.390625zm101.003174 63.0l0 -108.59375l15.0 0l1.796936 19.796875l0.390625 0q5.609375 -10.40625 13.703125 -16.5q8.109375 -6.109375 17.109375 -6.109375q3.796875 0 6.484375 0.5q2.703125 0.5 5.109375 1.90625l-3.40625 15.796875q-2.796875 -0.796875 -5.0 -1.296875q-2.1875 -0.5 -5.59375 -0.5q-6.59375 0 -14.203125 5.703125q-7.59375 5.703125 -13.0 19.5l0 69.796875l-18.390686 0z" fill-rule="nonzero"/></g></svg>