<svg version="1.1" viewBox="0.0 0.0 3401.5748031496064 1133.8582677165355" fill="none" stroke="none" stroke-linecap="square" stroke-miterlimit="10" xmlns:xlink="http://www.w3.org/1999/xlink" xmlns="http://www.w3.org/2000/svg"><clipPath id="p.0"><path d="m0 0l3401.5747 0l0 1133.8583l-3401.5747 0l0 -1133.8583z" clip-rule="nonzero"/></clipPath><g clip-path="url(#p.0)"><path fill="#000000" fill-opacity="0.0" d="m0 0l3401.5747 0l0 1133.8583l-3401.5747 0z" fill-rule="evenodd"/><path fill="#351c75" d="m708.6628 141.73232l0 0c78.27655 78.27658 78.27655 205.18797 0 283.46454c-78.27661 78.27658 -205.18799 78.27658 -283.46457 0c-78.27658 -78.27658 -78.27658 -205.18797 0 -283.46454l141.73227 141.73228z" fill-rule="evenodd"/><path stroke="#000000" stroke-width="16.0" stroke-linejoin="round" stroke-linecap="butt" d="m708.6628 141.73232l0 0c78.27655 78.27658 78.27655 205.18797 0 283.46454c-78.27661 78.27658 -205.18799 78.27658 -283.46457 0c-78.27658 -78.27658 -78.27658 -205.18797 0 -283.46454l141.73227 141.73228z" fill-rule="evenodd"/><path fill="#990000" d="m141.73232 425.12863l0 0c78.27658 -78.27658 205.188 -78.27658 283.4646 0c78.27658 78.27658 78.27658 205.18802 0 283.46457c-78.27658 78.27661 -205.188 78.27661 -283.4646 0l141.73228 -141.7323z" fill-rule="evenodd"/><path stroke="#000000" stroke-width="16.0" stroke-linejoin="round" stroke-linecap="butt" d="m141.73232 425.12863l0 0c78.27658 -78.27658 205.188 -78.27658 283.4646 0c78.27658 78.27658 78.27658 205.18802 0 283.46457c-78.27658 78.27661 -205.188 78.27661 -283.4646 0l141.73228 -141.7323z" fill-rule="evenodd"/><path fill="#38761d" d="m992.126 708.6296l0 0c-78.27661 78.27655 -205.18799 78.27655 -283.4646 0c-78.27655 -78.27661 -78.27655 -205.18802 0 -283.4646c78.27661 -78.27658 205.18799 -78.27658 283.4646 0l-141.7323 141.7323z" fill-rule="evenodd"/><path stroke="#000000" stroke-width="16.0" stroke-linejoin="round" stroke-linecap="butt" d="m992.126 708.6296l0 0c-78.27661 78.27655 -205.18799 78.27655 -283.4646 0c-78.27655 -78.27661 -78.27655 -205.18802 0 -283.4646c78.27661 -78.27658 205.18799 -78.27658 283.4646 0l-141.7323 141.7323z" fill-rule="evenodd"/><path fill="#bf9000" d="m425.1973 992.126l0 0c-78.27658 -78.27661 -78.27658 -205.18799 0 -283.4646c78.27658 -78.27655 205.18796 -78.27655 283.46457 0c78.27655 78.27661 78.27655 205.18799 0 283.4646l-141.7323 -141.7323z" fill-rule="evenodd"/><path stroke="#000000" stroke-width="16.0" stroke-linejoin="round" stroke-linecap="butt" d="m425.1973 992.126l0 0c-78.27658 -78.27661 -78.27658 -205.18799 0 -283.4646c78.27658 -78.27655 205.18796 -78.27655 283.46457 0c78.27655 78.27661 78.27655 205.18799 0 283.4646l-141.7323 -141.7323z" fill-rule="evenodd"/><path fill="#000000" fill-opacity="0.0" d="m1133.8583 314.76642l2267.7163 0l0 504.18896l-2267.7163 0z" fill-rule="evenodd"/><path fill="#351c75" d="m1277.049 725.2609l0 -288.20312l-97.671875 0l0 -34.3125l236.28125 0l0 34.3125l-97.6875 0l0 288.20312l-40.921875 0zm256.08875 5.71875q-32.125 0 -58.09375 -14.953125q-25.953125 -14.96875 -41.140625 -42.90625q-15.171875 -27.9375 -15.171875 -67.09375q0 -29.484375 8.796875 -52.578125q8.8125 -23.109375 23.984375 -39.609375q15.1875 -16.5 34.546875 -25.078125q19.359375 -8.578125 39.59375 -8.578125q30.796875 0 51.921875 13.640625q21.125 13.640625 32.34375 38.9375q11.21875 25.296875 11.21875 59.625q0 6.59375 -0.4375 12.3125q-0.4375 5.71875 -1.328125 10.5625l-161.03125 0q1.3125 25.515625 11.65625 44.21875q10.34375 18.703125 27.5 29.046875q17.15625 10.328125 40.046875 10.328125q17.59375 0 31.890625 -5.046875q14.296875 -5.0625 27.9375 -13.859375l14.078125 26.828125q-15.390625 10.125 -34.75 17.171875q-19.359375 7.03125 -43.5625 7.03125zm-75.234375 -144.3125l128.03125 0q0 -36.09375 -15.625 -55.21875q-15.609375 -19.140625 -43.765625 -19.140625q-16.734375 0 -31.46875 8.796875q-14.734375 8.796875 -24.640625 25.078125q-9.890625 16.28125 -12.53125 40.484375zm268.83752 144.3125q-19.796875 0 -35.640625 -7.921875q-15.84375 -7.921875 -24.875 -23.09375q-9.015625 -15.1875 -9.015625 -36.75q0 -39.15625 34.984375 -60.046875q34.984375 -20.90625 111.546875 -29.265625q0 -15.40625 -4.1875 -29.265625q-4.171875 -13.859375 -14.734375 -22.4375q-10.5625 -8.578125 -30.359375 -8.578125q-20.6875 0 -38.953125 8.140625q-18.25 8.140625 -32.765625 17.375l-15.40625 -27.71875q11.0 -7.03125 25.515625 -14.296875q14.53125 -7.265625 31.6875 -12.09375q17.15625 -4.84375 36.515625 -4.84375q29.046875 0 47.296875 12.328125q18.265625 12.3125 26.84375 34.09375q8.578125 21.78125 8.578125 51.703125l0 146.95312l-33.0 0l-3.515625 -28.59375l-1.3125 0q-16.734375 14.078125 -36.75 24.203125q-20.015625 10.109375 -42.453125 10.109375zm11.4375 -32.5625q17.15625 0 32.765625 -7.921875q15.625 -7.921875 32.796875 -23.3125l0 -66.4375q-40.046875 4.390625 -63.8125 12.53125q-23.75 8.140625 -33.875 19.8125q-10.109375 11.65625 -10.109375 27.484375q0 20.6875 12.3125 29.265625q12.3125 8.578125 29.921875 8.578125z" fill-rule="nonzero"/><path fill="#bf9000" d="m2044.8516 730.9797q-29.921875 0 -55.65625 -11.21875q-25.734375 -11.21875 -44.65625 -32.78125q-18.921875 -21.5625 -29.484375 -52.578125q-10.5625 -31.015625 -10.5625 -70.1875q0 -39.15625 10.78125 -70.171875q10.78125 -31.015625 30.140625 -52.578125q19.359375 -21.5625 45.3125 -33.0q25.96875 -11.4375 56.765625 -11.4375q29.484375 0 51.921875 12.09375q22.4375 12.09375 36.515625 27.5l-22.0 26.40625q-12.75 -13.640625 -29.03125 -22.0q-16.28125 -8.359375 -36.96875 -8.359375q-30.359375 0 -53.234375 15.84375q-22.875 15.828125 -35.640625 45.09375q-12.765625 29.25 -12.765625 69.296875q0 40.921875 12.3125 70.625q12.328125 29.6875 34.765625 45.75q22.453125 16.0625 53.25 16.0625q22.875 0 41.140625 -9.671875q18.265625 -9.6875 33.65625 -26.84375l22.4375 25.953125q-18.921875 22.0 -43.125 34.109375q-24.1875 12.09375 -55.875 12.09375zm155.32935 -5.71875l0 -350.23438l40.46875 0l0 95.921875l-1.75 49.265625q16.71875 -16.71875 35.640625 -28.375q18.921875 -11.65625 43.5625 -11.65625q37.828125 0 55.421875 23.984375q17.609375 23.96875 17.609375 69.734375l0 151.35938l-40.03125 0l0 -146.07812q0 -33.875 -10.78125 -48.828125q-10.78125 -14.96875 -34.546875 -14.96875q-18.484375 0 -33.0 9.234375q-14.515625 9.234375 -32.125 27.28125l0 173.35938l-40.46875 0zm267.08008 0l0 -238.92188l40.46875 0l0 238.92188l-40.46875 0zm20.234375 -288.20312q-11.875 0 -19.140625 -7.25q-7.265625 -7.265625 -7.265625 -19.59375q0 -11.875 7.265625 -18.90625q7.265625 -7.046875 19.140625 -7.046875q11.875 0 19.359375 7.046875q7.484375 7.03125 7.484375 18.90625q0 12.328125 -7.484375 19.59375q-7.484375 7.25 -19.359375 7.25zm100.765625 288.20312l0 -238.92188l33.0 0l3.953125 34.765625l0.875 0q15.84375 -17.15625 34.546875 -29.03125q18.703125 -11.890625 39.828125 -11.890625q27.71875 0 43.109375 12.328125q15.40625 12.3125 22.890625 33.4375q18.90625 -20.25 38.046875 -33.0q19.140625 -12.765625 41.140625 -12.765625q36.53125 0 54.34375 23.984375q17.828125 23.96875 17.828125 69.734375l0 151.35938l-40.046875 0l0 -146.07812q0 -33.875 -10.78125 -48.828125q-10.78125 -14.96875 -33.65625 -14.96875q-13.640625 0 -28.390625 9.015625q-14.734375 9.015625 -31.890625 27.5l0 173.35938l-40.046875 0l0 -146.07812q0 -33.875 -10.78125 -48.828125q-10.765625 -14.96875 -33.65625 -14.96875q-13.640625 0 -28.609375 9.015625q-14.953125 9.015625 -31.234375 27.5l0 173.35938l-40.46875 0zm504.23682 5.71875q-32.125 0 -58.09375 -14.953125q-25.953125 -14.96875 -41.140625 -42.90625q-15.171875 -27.9375 -15.171875 -67.09375q0 -29.484375 8.796875 -52.578125q8.8125 -23.109375 23.984375 -39.609375q15.1875 -16.5 34.546875 -25.078125q19.359375 -8.578125 39.59375 -8.578125q30.796875 0 51.921875 13.640625q21.125 13.640625 32.34375 38.9375q11.21875 25.296875 11.21875 59.625q0 6.59375 -0.4375 12.3125q-0.4375 5.71875 -1.328125 10.5625l-161.03125 0q1.3125 25.515625 11.65625 44.21875q10.34375 18.703125 27.5 29.046875q17.15625 10.328125 40.046875 10.328125q17.59375 0 31.890625 -5.046875q14.296875 -5.0625 27.9375 -13.859375l14.078125 26.828125q-15.390625 10.125 -34.75 17.171875q-19.359375 7.03125 -43.5625 7.03125zm-75.234375 -144.3125l128.03125 0q0 -36.09375 -15.625 -55.21875q-15.609375 -19.140625 -43.765625 -19.140625q-16.734375 0 -31.46875 8.796875q-14.734375 8.796875 -24.640625 25.078125q-9.890625 16.28125 -12.53125 40.484375zm222.19751 138.59375l0 -238.92188l33.0 0l3.953125 43.5625l0.875 0q12.328125 -22.875 30.140625 -36.296875q17.828125 -13.421875 37.625 -13.421875q8.359375 0 14.296875 1.109375q5.9375 1.09375 11.21875 4.171875l-7.46875 34.75q-6.171875 -1.75 -11.015625 -2.84375q-4.828125 -1.109375 -12.3125 -1.109375q-14.515625 0 -31.234375 12.546875q-16.71875 12.53125 -28.609375 42.890625l0 153.5625l-40.46875 0z" fill-rule="nonzero"/></g></svg>